HIERARCHY
ROOT joint_0
{
	OFFSET 0.000000 0.000000 0.000000
	CHANNELS 6 Xposition Yposition Zposition Zrotation Yrotation Xrotation 
	JOINT joint_1
	{
		OFFSET 0.511002 1.944000 108.288940
		CHANNELS 3 Zrotation Yrotation Xrotation
		JOINT joint_2
		{
			OFFSET -9.074005 1.512993 98.440063
			CHANNELS 3 Zrotation Yrotation Xrotation
			JOINT joint_3
			{
				OFFSET -8.590996 1.815002 98.366943
				CHANNELS 3 Zrotation Yrotation Xrotation
				JOINT joint_4
				{
					OFFSET 2.489998 3.531998 136.462036
					CHANNELS 3 Zrotation Yrotation Xrotation
					JOINT joint_5
					{
						OFFSET 22.708000 2.955002 80.357056
						CHANNELS 3 Zrotation Yrotation Xrotation
						End Site
						{
							OFFSET 0.000000 0.000000 0.000000
						}
					}
				}
				JOINT joint_6
				{
					OFFSET 2.860001 -27.684998 77.234009
					CHANNELS 3 Zrotation Yrotation Xrotation
					JOINT joint_7
					{
						OFFSET 5.449997 -131.244003 -18.851929
						CHANNELS 3 Zrotation Yrotation Xrotation
						JOINT joint_8
						{
							OFFSET 35.757000 -24.661995 -264.074097
							CHANNELS 3 Zrotation Yrotation Xrotation
							JOINT joint_9
							{
								OFFSET 49.392001 -1.747002 -239.960938
								CHANNELS 3 Zrotation Yrotation Xrotation
								End Site
								{
									OFFSET 0.000000 0.000000 0.000000
								}
							}
						}
					}
				}
				JOINT joint_10
				{
					OFFSET -0.127998 31.625000 75.753052
					CHANNELS 3 Zrotation Yrotation Xrotation
					JOINT joint_11
					{
						OFFSET -5.618004 131.132996 -19.557007
						CHANNELS 3 Zrotation Yrotation Xrotation
						JOINT joint_12
						{
							OFFSET 46.488998 30.127991 -261.826050
							CHANNELS 3 Zrotation Yrotation Xrotation
							JOINT joint_13
							{
								OFFSET 66.021003 0.474030 -235.934937
								CHANNELS 3 Zrotation Yrotation Xrotation
								End Site
								{
									OFFSET 0.000000 0.000000 0.000000
								}
							}
						}
					}
				}
			}
		}
	}
	JOINT joint_14
	{
		OFFSET 15.887001 -78.871004 -94.561035
		CHANNELS 3 Zrotation Yrotation Xrotation
		JOINT joint_15
		{
			OFFSET -4.133003 6.714001 -473.615967
			CHANNELS 3 Zrotation Yrotation Xrotation
			JOINT joint_16
			{
				OFFSET -19.541000 5.340000 -399.613007
				CHANNELS 3 Zrotation Yrotation Xrotation
				JOINT joint_17
				{
					OFFSET 164.317001 41.657999 -73.195000
					CHANNELS 3 Zrotation Yrotation Xrotation
					End Site
					{
						OFFSET 0.000000 0.000000 0.000000
					}
				}
			}
		}
	}
	JOINT joint_18
	{
		OFFSET 6.513000 77.960991 -96.406982
		CHANNELS 3 Zrotation Yrotation Xrotation
		JOINT joint_19
		{
			OFFSET -10.660004 -8.518997 -473.485016
			CHANNELS 3 Zrotation Yrotation Xrotation
			JOINT joint_20
			{
				OFFSET -36.967995 -11.098999 -398.260010
				CHANNELS 3 Zrotation Yrotation Xrotation
				JOINT joint_21
				{
					OFFSET 166.067997 30.363998 -74.785000
					CHANNELS 3 Zrotation Yrotation Xrotation
					End Site
					{
						OFFSET 0.000000 0.000000 0.000000
					}
				}
			}
		}
	}
}
MOTION
Frames: 6
Frame Time: 0.016667
-2416.610352 909.705994 1059.468994 6.837219 2.465764 0.534423 -0.473647 -1.977728 0.479874 -0.569275 0.235291 -0.093303 -0.539552 -0.437897 0.111311 0.020685 0.792936 -0.172456 0.000000 0.000000 0.000000 1.493808 -1.334884 0.243228 0.086673 -1.189969 -1.178897 0.225371 0.848833 1.162018 0.000000 0.000000 0.000000 -3.641870 -0.268800 -1.274500 0.260963 0.365816 -0.041446 0.600214 -0.082897 2.157443 0.000000 0.000000 0.000000 -4.361512 0.281500 -1.513924 -4.393955 -1.281457 -0.226842 -4.330168 -1.238142 -1.607845 0.000000 0.000000 0.000000 0.430172 -1.903919 3.569927 0.537061 -1.438670 -0.302611 0.440855 1.532746 -0.083499 0.000000 0.000000 0.000000 
-2416.961914 909.244812 1059.473999 6.867000 2.451176 0.539105 -0.473619 -1.952971 0.481120 -0.569391 0.233385 -0.095169 -0.539577 -0.433672 0.111882 0.022026 0.793792 -0.177282 0.000000 0.000000 0.000000 1.510841 -1.341232 0.249227 0.084205 -1.194473 -1.196210 0.223166 0.853428 1.151763 0.000000 0.000000 0.000000 -3.642878 -0.271332 -1.287927 0.262019 0.364290 -0.038292 0.600611 -0.088001 2.159125 0.000000 0.000000 0.000000 -4.372275 0.273468 -1.491898 -4.404392 -1.278037 -0.224735 -4.339681 -1.214947 -1.618072 0.000000 0.000000 0.000000 0.415925 -1.925071 3.594342 0.523063 -1.422363 -0.306317 0.427234 1.548804 -0.092530 0.000000 0.000000 0.000000 
-2417.303711 908.786743 1059.478027 6.893369 2.438914 0.542568 -0.472530 -1.931885 0.482010 -0.568348 0.232365 -0.095500 -0.538593 -0.428951 0.112256 0.023907 0.796184 -0.184231 0.000000 0.000000 0.000000 1.523845 -1.348746 0.255077 0.081966 -1.200793 -1.214637 0.221606 0.858238 1.144703 0.000000 0.000000 0.000000 -3.645802 -0.273626 -1.302267 0.262856 0.363249 -0.036278 0.600975 -0.092556 2.160671 0.000000 0.000000 0.000000 -4.382068 0.263121 -1.468706 -4.413827 -1.274213 -0.222669 -4.348236 -1.192413 -1.627705 0.000000 0.000000 0.000000 0.403108 -1.948860 3.620203 0.510486 -1.403762 -0.310917 0.414949 1.563938 -0.100796 0.000000 0.000000 0.000000 
-2417.641602 908.329224 1059.479980 6.914553 2.430686 0.543828 -0.470221 -1.912317 0.483576 -0.566074 0.227712 -0.095210 -0.536598 -0.423161 0.111631 0.026712 0.803794 -0.195150 0.000000 0.000000 0.000000 1.533022 -1.357791 0.261533 0.080188 -1.209321 -1.234013 0.221274 0.863078 1.143711 0.000000 0.000000 0.000000 -3.648656 -0.275012 -1.316161 0.263418 0.363011 -0.035148 0.600770 -0.097039 2.160154 0.000000 0.000000 0.000000 -4.390363 0.248130 -1.442917 -4.421697 -1.270115 -0.220868 -4.355269 -1.169687 -1.636711 0.000000 0.000000 0.000000 0.392512 -1.978104 3.649197 0.500131 -1.381219 -0.317740 0.404688 1.577607 -0.107891 0.000000 0.000000 0.000000 
-2417.969727 907.874756 1059.479980 6.933088 2.424307 0.543957 -0.466604 -1.895584 0.485042 -0.562446 0.223986 -0.093836 -0.533416 -0.417161 0.110077 0.029566 0.811855 -0.206317 0.000000 0.000000 0.000000 1.536287 -1.367957 0.268533 0.078700 -1.219928 -1.254511 0.221723 0.868079 1.146591 0.000000 0.000000 0.000000 -3.655345 -0.276125 -1.329465 0.263705 0.363478 -0.035840 0.600590 -0.101142 2.159709 0.000000 0.000000 0.000000 -4.398267 0.231395 -1.415950 -4.429147 -1.265401 -0.219104 -4.361917 -1.147714 -1.645354 0.000000 0.000000 0.000000 0.382999 -2.009516 3.679705 0.490865 -1.356402 -0.325724 0.395429 1.589736 -0.114256 0.000000 0.000000 0.000000 
-2418.280273 907.433533 1059.477051 6.948029 2.414614 0.543515 -0.464914 -1.876469 0.489237 -0.560913 0.220408 -0.092492 -0.532276 -0.411548 0.108965 0.033116 0.818404 -0.219751 0.000000 0.000000 0.000000 1.546949 -1.378713 0.274660 0.077014 -1.230014 -1.275376 0.222195 0.871787 1.149461 0.000000 0.000000 0.000000 -3.657102 -0.275852 -1.345907 0.263973 0.364693 -0.037255 0.600897 -0.103870 2.160982 0.000000 0.000000 0.000000 -4.404879 0.217960 -1.388907 -4.435286 -1.257950 -0.218870 -4.367483 -1.129309 -1.652606 0.000000 0.000000 0.000000 0.374609 -2.034995 3.709228 0.482767 -1.332660 -0.331869 0.387451 1.600613 -0.119820 0.000000 0.000000 0.000000 
